
<svg xmlns="http://www.w3.org/2000/svg" version="1.1" id="svg10" xml:space="preserve" width="4513.3242" height="500" viewBox="0 0 4513.3242 499.99999"><defs id="defs14"><clipPath clipPathUnits="userSpaceOnUse" id="clipPath26"><path d="M 0,841.89 H 595.28 V 0 H 0 Z" id="path24"></path></clipPath></defs><g id="g18" transform="matrix(1.3333333,0,0,-1.3333333,491.82666,717.1941)"><g id="g2005" transform="matrix(0.2857609,0,0,0.2857609,-52.175953,468.7684)"><g id="g726" transform="matrix(4.7481478,0,0,4.7481478,218.0716,565.36687)"><path d="M 0,0 C -2.273,-2.239 -4.963,-2.699 -8.301,-2.699 H -36.91 c -2.278,0 -4.299,1.84 -5.244,4.433 h -7.432 c 1.354,-6.255 6.522,-10.926 12.676,-10.926 h 28.609 c 4.071,0 9.295,0.548 13.627,4.809 l 4.682,4.61 -4.889,4.81 C 2.328,2.289 0,0 0,0" style="fill:#ed1b2f;fill-opacity:1;fill-rule:nonzero;stroke:none" id="path728"></path></g><g id="g730" transform="matrix(4.7481478,0,0,4.7481478,42.816996,625.48412)"><path d="m 0,0 h 18.648 c 0.823,0 1.741,-0.909 1.741,-2.214 0,-1.307 -0.918,-2.219 -1.741,-2.219 H -5.244 c -0.361,-0.992 -0.567,-2.095 -0.567,-3.247 0,-1.153 0.206,-2.255 0.567,-3.247 h 23.892 c 4.94,0 8.956,3.908 8.956,8.713 0,4.802 -4.016,8.708 -8.956,8.708 H 0 c -6.154,0 -11.322,-4.671 -12.676,-10.927 h 7.432 C -4.299,-1.839 -2.277,0 0,0" style="fill:#ed1b2f;fill-opacity:1;fill-rule:nonzero;stroke:none" id="path732"></path></g><g id="g734" transform="matrix(4.7481478,0,0,4.7481478,15.22741,589.01977)"><path d="M 0,0 C 0,1.151 0.205,2.254 0.566,3.247 H -6.865 C -7.092,2.203 -7.215,1.118 -7.215,0 c 0,-1.118 0.123,-2.204 0.35,-3.247 H 0.566 C 0.205,-2.255 0,-1.153 0,0" style="fill:#802629;fill-opacity:1;fill-rule:nonzero;stroke:none" id="path736"></path></g><g id="g738" transform="matrix(4.7481478,0,0,4.7481478,-17.369572,604.4351)"><path d="m 0,0 h -8.121 c -1.99,0 -3.606,-1.454 -3.606,-3.247 0,-1.795 1.616,-3.247 3.606,-3.247 H 0 c -0.227,1.044 -0.35,2.129 -0.35,3.247 0,1.119 0.123,2.204 0.35,3.247" style="fill:#ed1b2f;fill-opacity:1;fill-rule:nonzero;stroke:none" id="path740"></path></g><g id="g742" transform="matrix(4.7481478,0,0,4.7481478,312.56164,612.6722)"><path d="m 0,0 c 2.275,2.239 4.965,2.698 8.303,2.698 h 2.375 c 1.992,0 3.609,1.453 3.609,3.247 0,1.793 -1.617,3.247 -3.609,3.247 H 8.303 c -4.071,0 -9.297,-0.547 -13.627,-4.809 0,0 -2.03,-1.995 -4.569,-4.495 l 4.891,-4.814 z" style="fill:#ed1b2f;fill-opacity:1;fill-rule:nonzero;stroke:none" id="path744"></path></g><g id="g746" transform="matrix(4.7481478,0,0,4.7481478,241.12623,636.14657)"><path d="m 0,0 c -2.059,2.029 -4.631,3.58 -7.477,4.152 -1.941,0.389 -3.908,-0.531 -4.443,-2.26 -0.533,-1.727 0.592,-3.517 2.51,-3.998 1.623,-0.404 2.92,-1.128 4.086,-2.276 L 0.264,-9.87 c 1.591,1.569 3.338,3.285 4.888,4.814 z" style="fill:#0071ce;fill-opacity:1;fill-rule:nonzero;stroke:none" id="path748"></path></g><g id="g750" transform="matrix(4.7481478,0,0,4.7481478,363.47459,552.82655)"><path d="m 0,0 h -2.379 c -3.336,0 -6.023,0.458 -8.299,2.697 l -5.047,4.981 -4.89,-4.81 4.613,-4.554 c 4.33,-4.262 9.557,-4.808 13.623,-4.808 H 0 c 1.994,0 3.607,1.454 3.607,3.247 C 3.607,-1.453 1.994,0 0,0" style="fill:#0071ce;fill-opacity:1;fill-rule:nonzero;stroke:none" id="path752"></path></g><g id="g754" transform="matrix(4.7481478,0,0,4.7481478,265.59059,612.13897)"><path d="M 0,0 C -1.551,-1.529 -3.297,-3.245 -4.889,-4.813 L 0,-9.624 4.891,-4.813 Z" style="fill:#0b1f8f;fill-opacity:1;fill-rule:nonzero;stroke:none" id="path756"></path></g><g id="g758" transform="matrix(4.7481478,0,0,4.7481478,380.39891,471.98742)"><path d="M 0,0 H -2.221 V -15.809 H 0 v 9.441 h 1.85 v 1.535 H 0 Z" style="fill:#0b1f8f;fill-opacity:1;fill-rule:nonzero;stroke:none" id="path760"></path></g><g id="g762" transform="matrix(4.7481478,0,0,4.7481478,347.59775,455.88362)"><path d="M 0,0 V 3.264 H -2.221 V 0 c 0,-2.669 -1.062,-4.888 -3.55,-6.437 l 0.974,-1.259 c 1.649,0.866 2.883,2.173 3.688,3.592 0.806,-1.419 2.041,-2.726 3.687,-3.592 l 0.977,1.259 C 1.068,-4.888 0,-2.669 0,0" style="fill:#0b1f8f;fill-opacity:1;fill-rule:nonzero;stroke:none" id="path764"></path></g><g id="g766" transform="matrix(4.7481478,0,0,4.7481478,30.6964,452.31348)"><path d="M 0,0 V 4.144 H -2.223 V -7.369 H 0 v 5.834 H 1.844 V 0 Z" style="fill:#0b1f8f;fill-opacity:1;fill-rule:nonzero;stroke:none" id="path768"></path></g><g id="g770" transform="matrix(4.7481478,0,0,4.7481478,-17.564248,446.99033)"><path d="M 0,0 C 0,1.35 0.838,2.442 1.873,2.442 2.908,2.442 3.748,1.35 3.748,0 3.748,-1.353 2.908,-2.443 1.873,-2.443 0.838,-2.443 0,-1.353 0,0 m 5.971,0 c 0,1.204 -0.569,2.217 -1.457,2.88 H 6.066 V 4.416 H 2.959 V 5.818 H 0.734 V 4.416 H -2.373 V 2.88 h 1.607 C -1.656,2.217 -2.223,1.204 -2.223,0 c 0,-2.174 1.834,-3.932 4.096,-3.932 2.262,0 4.098,1.758 4.098,3.932" style="fill:#0b1f8f;fill-opacity:1;fill-rule:nonzero;stroke:none" id="path772"></path></g><g id="g774" transform="matrix(4.7481478,0,0,4.7481478,31.243388,397.16232)"><path d="m 0,0 v 1.535 h -8.328 v 3.433 h -2.223 V 1.31 c 0,-0.679 0.535,-1.31 1.397,-1.31 z" style="fill:#0b1f8f;fill-opacity:1;fill-rule:nonzero;stroke:none" id="path776"></path></g><g id="g778" transform="matrix(4.7481478,0,0,4.7481478,122.80287,470.97227)"><path d="m 0,0 v -1.533 -5.395 -0.029 c 0,-0.678 0.537,-1.31 1.398,-1.31 h 2.856 v -4.628 h -5.068 v -1.532 h 12.361 v 1.532 H 6.475 v 4.628 h 4.004 v 1.535 H 2.225 v 5.199 h 8.254 V 0 Z" style="fill:#0b1f8f;fill-opacity:1;fill-rule:nonzero;stroke:none" id="path780"></path></g><g id="g782" transform="matrix(4.7481478,0,0,4.7481478,81.933662,425.15976)"><path d="M 0,0 V 2.654 H 5.307 V 4.188 H 4.189 v 4.15 c 0,0.678 -0.539,1.31 -1.398,1.31 H 1.965 -6.744 V 8.115 H 1.965 V 4.188 H -7.523 V 2.654 h 5.302 V 0 H -6.744 V -1.533 H 1.965 V -5.946 H 4.189 V 0 Z" style="fill:#0b1f8f;fill-opacity:1;fill-rule:nonzero;stroke:none" id="path784"></path></g><g id="g786" transform="matrix(4.7481478,0,0,4.7481478,190.67716,433.49704)"><path d="m 0,0 c 0,-0.681 0.539,-1.313 1.4,-1.313 h 2.971 v -3.689 h -5.187 v -1.532 h 12.597 v 1.532 H 6.594 v 3.689 h 4.117 V 0.225 H 2.223 v 2.193 h 8.488 v 4.164 c 0,0.678 -0.537,1.311 -1.398,1.311 H 0 V 6.359 H 8.49 V 3.953 H 0 Z" style="fill:#0b1f8f;fill-opacity:1;fill-rule:nonzero;stroke:none" id="path788"></path></g><g id="g790" transform="matrix(4.7481478,0,0,4.7481478,259.2936,470.97227)"><path d="m 0,0 v -1.533 h 8.594 v -5.043 h -3.1 v 2.983 H 3.271 V -6.576 H -1.133 V -8.111 H 12.17 v 1.535 h -1.356 v 5.043 0.222 C 10.814,-0.633 10.277,0 9.416,0 Z" style="fill:#0b1f8f;fill-opacity:1;fill-rule:nonzero;stroke:none" id="path792"></path></g><g id="g794" transform="matrix(4.7481478,0,0,4.7481478,285.14868,400.96463)"><path d="m 0,0 c -1.4,0 -2.535,0.967 -2.535,2.154 0,1.189 1.135,2.149 2.535,2.149 1.402,0 2.535,-0.96 2.535,-2.149 C 2.535,0.967 1.402,0 0,0 m 0,5.801 c -2.627,0 -4.758,-1.634 -4.758,-3.647 0,-2.015 2.131,-3.65 4.758,-3.65 2.629,0 4.76,1.635 4.76,3.65 0,2.013 -2.131,3.647 -4.76,3.647" style="fill:#0b1f8f;fill-opacity:1;fill-rule:nonzero;stroke:none" id="path796"></path></g></g><g id="g2082" transform="matrix(6.5344071,0,0,6.5344071,92.42371,-4540.1668)"><g id="g2043"><g id="g854" transform="matrix(2.0188393,0,0,2.0188393,53.186312,738.28931)"><path d="M 0,0 C -2.274,-2.237 -4.963,-2.696 -8.301,-2.696 H -36.91 c -2.277,0 -4.298,1.84 -5.242,4.43 h -7.434 c 1.354,-6.255 6.522,-10.923 12.676,-10.923 h 28.609 c 4.07,0 9.295,0.545 13.626,4.807 l 4.684,4.61 -4.89,4.812 C 2.325,2.291 0,0 0,0" style="fill:#ed1b2f;fill-opacity:1;fill-rule:nonzero;stroke:none" id="path856"></path></g><g id="g858" transform="matrix(2.0188393,0,0,2.0188393,-21.329247,763.85205)"><path d="m 0,0 h 18.648 c 0.824,0 1.741,-0.909 1.741,-2.215 0,-1.306 -0.917,-2.217 -1.741,-2.217 h -23.89 c -0.362,-0.994 -0.568,-2.095 -0.568,-3.247 0,-1.153 0.206,-2.254 0.568,-3.249 h 23.89 c 4.939,0 8.956,3.909 8.956,8.713 0,4.803 -4.017,8.71 -8.956,8.71 L 0,6.495 c -6.155,0 -11.322,-4.673 -12.676,-10.927 h 7.434 C -4.298,-1.84 -2.277,0 0,0" style="fill:#ed1b2f;fill-opacity:1;fill-rule:nonzero;stroke:none" id="path860"></path></g><g id="g862" transform="matrix(2.0188393,0,0,2.0188393,-33.057896,748.34999)"><path d="M 0,0 C 0,1.151 0.205,2.253 0.567,3.247 H -6.866 C -7.092,2.202 -7.216,1.117 -7.216,0 c 0,-1.118 0.124,-2.203 0.35,-3.249 H 0.567 C 0.205,-2.254 0,-1.153 0,0" style="fill:#802629;fill-opacity:1;fill-rule:nonzero;stroke:none" id="path864"></path></g><g id="g866" transform="matrix(2.0188393,0,0,2.0188393,-46.91965,754.90516)"><path d="m 0,0 h -8.119 c -1.992,0 -3.608,-1.454 -3.608,-3.247 0,-1.795 1.616,-3.249 3.608,-3.249 H 0 c -0.226,1.046 -0.35,2.131 -0.35,3.249 0,1.117 0.124,2.202 0.35,3.247" style="fill:#ed1b2f;fill-opacity:1;fill-rule:nonzero;stroke:none" id="path868"></path></g><g id="g870" transform="matrix(2.0188393,0,0,2.0188393,93.364039,758.40664)"><path d="m 0,0 c 2.273,2.237 4.964,2.697 8.302,2.697 h 2.375 c 1.994,0 3.609,1.453 3.609,3.246 0,1.793 -1.615,3.249 -3.609,3.249 H 8.302 c -4.071,0 -9.296,-0.546 -13.627,-4.81 0,0 -2.028,-1.994 -4.568,-4.495 l 4.888,-4.812 z" style="fill:#ed1b2f;fill-opacity:1;fill-rule:nonzero;stroke:none" id="path872"></path></g><g id="g874" transform="matrix(2.0188393,0,0,2.0188393,62.988786,768.38657)"><path d="m 0,0 c -2.06,2.029 -4.631,3.58 -7.478,4.151 -1.94,0.389 -3.909,-0.531 -4.441,-2.258 -0.534,-1.729 0.589,-3.518 2.511,-3.999 1.619,-0.404 2.919,-1.129 4.084,-2.275 l 5.588,-5.487 c 1.592,1.567 3.337,3.283 4.889,4.811 z" style="fill:#0071ce;fill-opacity:1;fill-rule:nonzero;stroke:none" id="path876"></path></g><g id="g878" transform="matrix(2.0188393,0,0,2.0188393,115.00943,732.96018)"><path d="m 0,0 h -2.377 c -3.338,0 -6.025,0.458 -8.301,2.696 l -5.049,4.984 -4.887,-4.813 4.612,-4.553 c 4.33,-4.261 9.557,-4.808 13.625,-4.808 H 0 c 1.993,0 3.609,1.453 3.609,3.247 C 3.609,-1.454 1.993,0 0,0" style="fill:#0071ce;fill-opacity:1;fill-rule:nonzero;stroke:none" id="path880"></path></g><g id="g882" transform="matrix(2.0188393,0,0,2.0188393,73.39247,758.1779)"><path d="M 0,0 C -1.553,-1.528 -3.297,-3.244 -4.89,-4.812 L 0,-9.624 4.888,-4.812 Z" style="fill:#0b1f8f;fill-opacity:1;fill-rule:nonzero;stroke:none" id="path884"></path></g><g id="g886" transform="matrix(2.0188393,0,0,2.0188393,441.21549,775.27202)"><path d="M 0,0 H -3.704 V -26.352 H 0 v 15.737 h 3.079 v 2.558 H 0 Z" style="fill:#0b1f8f;fill-opacity:1;fill-rule:nonzero;stroke:none" id="path888"></path></g><g id="g890" transform="matrix(2.0188393,0,0,2.0188393,417.97724,763.85003)"><path d="M 0,0 V 5.443 H -3.705 V 0 c 0,-4.45 -1.775,-8.141 -5.925,-10.729 l 1.628,-2.097 c 2.748,1.443 4.805,3.623 6.15,5.988 1.342,-2.365 3.4,-4.545 6.144,-5.988 l 1.634,2.097 C 1.771,-8.141 0,-4.45 0,0" style="fill:#0b1f8f;fill-opacity:1;fill-rule:nonzero;stroke:none" id="path892"></path></g><g id="g894" transform="matrix(2.0188393,0,0,2.0188393,193.33211,761.32446)"><path d="m 0,0 v 6.909 h -3.704 v -19.19 H 0 v 9.725 H 3.081 V 0 Z" style="fill:#0b1f8f;fill-opacity:1;fill-rule:nonzero;stroke:none" id="path896"></path></g><g id="g898" transform="matrix(2.0188393,0,0,2.0188393,159.13217,757.55004)"><path d="M 0,0 C 0,2.251 1.396,4.076 3.123,4.076 4.848,4.076 6.246,2.251 6.246,0 6.246,-2.251 4.848,-4.077 3.123,-4.077 1.396,-4.077 0,-2.251 0,0 m 9.951,0 c 0,2.01 -0.945,3.699 -2.43,4.805 H 10.11 V 7.363 H 4.93 V 9.697 H 1.225 V 7.363 H -3.957 V 4.805 h 2.681 C -2.76,3.699 -3.705,2.01 -3.705,0 c 0,-3.619 3.057,-6.555 6.828,-6.555 3.772,0 6.828,2.936 6.828,6.555" style="fill:#0b1f8f;fill-opacity:1;fill-rule:nonzero;stroke:none" id="path900"></path></g><g id="g902" transform="matrix(2.0188393,0,0,2.0188393,193.72841,722.24095)"><path d="M 0,0 V 2.556 H -13.885 V 8.28 H -17.59 V 2.183 C -17.59,1.051 -16.697,0 -15.261,0 Z" style="fill:#0b1f8f;fill-opacity:1;fill-rule:nonzero;stroke:none" id="path904"></path></g><g id="g906" transform="matrix(2.0188393,0,0,2.0188393,258.62703,774.55836)"><path d="m 0,0 v -2.561 -8.992 -0.045 c 0,-1.134 0.895,-2.188 2.33,-2.188 h 4.76 v -7.71 h -8.452 v -2.56 h 20.608 v 2.56 h -8.451 v 7.71 h 6.672 v 2.562 H 3.705 v 8.663 H 17.467 V 0 Z" style="fill:#0b1f8f;fill-opacity:1;fill-rule:nonzero;stroke:none" id="path908"></path></g><g id="g910" transform="matrix(2.0188393,0,0,2.0188393,229.66133,742.08351)"><path d="M 0,0 V 4.42 H 8.844 V 6.979 H 6.98 v 6.919 c 0,1.134 -0.895,2.188 -2.331,2.188 H 3.273 -11.246 V 13.525 H 3.273 V 6.979 h -15.82 V 4.42 h 8.844 V 0 h -7.543 V -2.562 H 3.273 v -7.35 H 6.98 V 0 Z" style="fill:#0b1f8f;fill-opacity:1;fill-rule:nonzero;stroke:none" id="path912"></path></g><g id="g914" transform="matrix(2.0188393,0,0,2.0188393,306.74202,747.98721)"><path d="m 0,0 c 0,-1.133 0.894,-2.186 2.329,-2.186 h 4.955 v -6.148 h -8.648 v -2.561 h 21.002 v 2.561 h -8.647 v 6.148 h 6.865 v 2.56 H 3.701 V 4.03 h 14.155 v 6.944 c 0,1.133 -0.894,2.188 -2.33,2.188 H 0 V 10.601 H 14.151 V 6.588 H 0 Z" style="fill:#0b1f8f;fill-opacity:1;fill-rule:nonzero;stroke:none" id="path916"></path></g><g id="g918" transform="matrix(2.0188393,0,0,2.0188393,355.3696,774.55836)"><path d="m 0,0 v -2.561 h 14.328 v -8.405 h -5.17 v 4.978 H 5.453 v -4.978 h -7.337 v -2.56 h 22.171 v 2.56 h -2.254 v 8.405 0.373 C 18.033,-1.054 17.138,0 15.703,0 Z" style="fill:#0b1f8f;fill-opacity:1;fill-rule:nonzero;stroke:none" id="path920"></path></g><g id="g922" transform="matrix(2.0188393,0,0,2.0188393,373.70087,724.93812)"><path d="m 0,0 c -2.336,0 -4.229,1.606 -4.229,3.586 0,1.981 1.893,3.587 4.229,3.587 2.336,0 4.229,-1.606 4.229,-3.587 C 4.229,1.606 2.336,0 0,0 m 0,9.666 c -4.379,0 -7.933,-2.722 -7.933,-6.08 0,-3.359 3.554,-6.082 7.933,-6.082 4.383,0 7.932,2.723 7.932,6.082 0,3.358 -3.549,6.08 -7.932,6.08" style="fill:#0b1f8f;fill-opacity:1;fill-rule:nonzero;stroke:none" id="path924"></path></g></g></g></g></svg>
